<svg width="70" height="70" viewBox="0 0 70 70" fill="none" xmlns="http://www.w3.org/2000/svg">
<path d="M2.82843 35L35 2.82843L67.1716 35L35 67.1716L2.82843 35Z" fill="#FFC632" fill-opacity="0.26" stroke="#FFC632" stroke-width="4"/>
<path d="M27.768 41.096C27.6507 41.096 27.544 41.064 27.448 41C27.3627 40.936 27.304 40.8507 27.272 40.744L25.16 34.28L24.76 32.84L24.6 34.328L23.912 40.6C23.8907 40.7173 23.8373 40.8133 23.752 40.888C23.6667 40.9627 23.5707 41 23.464 41H22.264C22.1467 41 22.056 40.9627 21.992 40.888C21.928 40.8133 21.9013 40.7173 21.912 40.6L23.24 29.992C23.2507 29.8533 23.304 29.7413 23.4 29.656C23.5067 29.56 23.6347 29.512 23.784 29.512H25.24C25.3573 29.512 25.4587 29.5493 25.544 29.624C25.64 29.688 25.704 29.7733 25.736 29.88L28.136 37.256L28.456 38.36L28.776 37.272L31.192 29.864C31.224 29.7573 31.2827 29.672 31.368 29.608C31.464 29.544 31.5707 29.512 31.688 29.512H33.016C33.1653 29.512 33.288 29.56 33.384 29.656C33.4907 29.7413 33.5493 29.8533 33.56 29.992L34.888 40.6C34.8987 40.7173 34.872 40.8133 34.808 40.888C34.744 40.9627 34.6533 41 34.536 41H33.288C33.1707 41 33.0693 40.9627 32.984 40.888C32.8987 40.8133 32.8507 40.7227 32.84 40.616L32.12 34.216L31.96 32.84L31.544 34.344L29.48 40.728C29.448 40.8347 29.384 40.9253 29.288 41C29.2027 41.064 29.1013 41.096 28.984 41.096H27.768ZM43.7001 41C43.5081 41 43.3535 40.9253 43.2361 40.776L39.6361 36.216H39.0281V40.664C39.0281 40.76 38.9961 40.84 38.9321 40.904C38.8681 40.968 38.7881 41 38.6921 41H37.4121C37.3161 41 37.2361 40.968 37.1721 40.904C37.1081 40.84 37.0761 40.76 37.0761 40.664V29.896C37.0761 29.8 37.1081 29.72 37.1721 29.656C37.2361 29.592 37.3161 29.56 37.4121 29.56H38.6921C38.7881 29.56 38.8681 29.592 38.9321 29.656C38.9961 29.72 39.0281 29.8 39.0281 29.896V34.408H39.5561L43.2361 29.784C43.3535 29.6347 43.5135 29.56 43.7161 29.56H45.1721C45.2681 29.56 45.3428 29.592 45.3961 29.656C45.4601 29.7093 45.4921 29.7733 45.4921 29.848C45.4921 29.912 45.4655 29.9813 45.4121 30.056L41.2521 35.208L45.4281 40.52C45.4815 40.5947 45.5081 40.664 45.5081 40.728C45.5081 40.8027 45.4761 40.872 45.4121 40.936C45.3588 40.9893 45.2841 41.016 45.1881 41.016L43.7001 41Z" fill="white"/>
</svg>
